{"title":"Deadpool (2016) CamRip | Rus","uid":13698706,"size":1554574100,"categoryP":"video","categoryS":"movies","magnet":"?xt=urn:btih:ad5766b133b5de560353e739c2acf558326999de&amp;dn=Deadpool+%282016%29+CamRip+%7C+Rus&amp;tr=udp%3A%2F%2Ftracker.leechers-paradise.org%3A6969&amp;tr=udp%3A%2F%2Fzer0day.ch%3A1337&amp;tr=udp%3A%2F%2Fopen.demonii.com%3A1337&amp;tr=udp%3A%2F%2Ftracker.coppersurfer.tk%3A6969&amp;tr=udp%3A%2F%2Fexodus.desync.com%3A6969","seeders":96,"leechers":4,"uploader":"nbdjod","files":1,"time":1456738960,"description":"Deadpool (2016) CamRip | Rus\r\n\r\nMI:\r\nGeneral\r\nFormat                         : AVI\r\nFormat/Info                    : Audio Video Interleave\r\nFile size                      : 1.45 GiB\r\nDuration                       : 1h 40mn\r\nOverall bit rate               : 2 058 Kbps\r\nWriting application            : Lavf56.40.101\r\nWriting library                : VirtualDub build 35576/release\r\n\r\nVideo\r\nID                             : 0\r\nFormat                         : MPEG-4 Visual\r\nFormat profile                 : Advanced   \r\nFormat settings, BVOP          : 2\r\nFormat settings, QPel          : No\r\nFormat settings, GMC           : No warppoints\r\nFormat settings, Matrix        : Default (H.263)\r\nCodec ID                       : XVID\r\nCodec ID/Hint                  : XviD\r\nDuration                       : 1h 40mn\r\nBit rate                       : 1 857 Kbps\r\nWidth                          : 720 pixels\r\nHeight                         : 320 pixels\r\nDisplay aspect ratio           : 2.25:1\r\nFrame rate                     : 23.976 fps\r\nColor space                    : YUV\r\nChroma subsampling             : 4:2:0\r\nBit depth                      : 8 bits\r\nScan type                      : Progressive\r\nCompression mode               : Lossy\r\nBits/(Pixel*Frame)             : 0.336\r\nStream size                    : 1.31 GiB (90%)\r\nWriting library                : XviD 67\r\n\r\nAudio\r\nID                             : 1\r\nFormat                         : MPEG Audio\r\nFormat version                 : Version 1\r\nFormat profile                 : Layer 3\r\nMode                           : Joint stereo\r\nMode extension                 : MS Stereo\r\nCodec ID                       : 55\r\nCodec ID/Hint                  : MP3\r\nDuration                       : 1h 40mn\r\nBit rate mode                  : Constant\r\nBit rate                       : 192 Kbps\r\nChannel(s)                     : 2 channels\r\nSampling rate                  : 44.1 KHz\r\nCompression mode               : Lossy\r\nStream size                    : 138 MiB (9%)\r\nAlignment                      : Split accross interleaves\r\nInterleave, duration           : 42 ms (1.00 video frame)\r\nInterleave, preload duration   : 500 ms\r\nWriting library                : LAME3.99r\r\nEncoding settings              : -m j -V 4 -q 2 -lowpass 18.6 -b 192\r\n\r\nScreens: \nhttp://i2.imageban.ru/out/2016/02/29/d56da7a7a90ff736fb2543badce565d5.png \nhttp://i1.imageban.ru/out/2016/02/29/69910ae7b021fcace6f4b342530c0bdc.png \nhttp://i6.imageban.ru/out/2016/02/29/c803ca64d3bbf0e52aa2562ad5c36de7.png \nhttp://i4.imageban.ru/out/2016/02/29/0a1a6c51903ec8cab6b5f9d4f93303fd.png \nhttp://i5.imageban.ru/out/2016/02/29/a9767fbd30dfa729468428b4cf54d7aa.png \nhttp://i5.imageban.ru/out/2016/02/29/965eda782e6e107655f54bdd5674acdd.png \nhttp://i4.imageban.ru/out/2016/02/29/0da38e8f43f2b53ae5474a4ffb6314dd.png \nhttp://i4.imageban.ru/out/2016/02/29/01f8dfce7f45ca123336f82a154c52a6.png","torrent":{"xt":"urn:btih:ad5766b133b5de560353e739c2acf558326999de","amp;dn":"Deadpool+%282016%29+CamRip+%7C+Rus","amp;tr":["udp%3A%2F%2Ftracker.leechers-paradise.org%3A6969","udp%3A%2F%2Fzer0day.ch%3A1337","udp%3A%2F%2Fopen.demonii.com%3A1337","udp%3A%2F%2Ftracker.coppersurfer.tk%3A6969","udp%3A%2F%2Fexodus.desync.com%3A6969"],"infoHash":"ad5766b133b5de560353e739c2acf558326999de","infoHashBuffer":{"type":"Buffer","data":[173,87,102,177,51,181,222,86,3,83,231,57,194,172,245,88,50,105,153,222]},"announce":[],"urlList":[]}}